:SAMPLES-PER-SECOND 30
:FULLY-SPECIFIED
:DEGREES
321
root  -11.2109 39.6816 7.13663 -137.976 -70.6946 139.411
RightUpLeg  -39.6942 14.7741 -1.77072
RightLeg  44.5941 -1.32095 -1.70844
RightFoot  29.4092 -0.846012 2.77757
RightToes  -1.16417e-010 0 -3.6325e-017
Spine  15.6802 3.84191 3.05261
Spine1  2.35436 8.03442 -15.8605
HEad  -23.0449 4.94725 -10.1416
LeftShoulder1  1.05001 -2.06249 -11.7215
LeftArm  -74.4467 -44.4636 -3.59957
LeftForeArm  54.2173 -78.5929 -83.0985
LeftHand  -1.45509 -0.174722 29.9805
RightShoulder  1.97126 7.51609 10.6648
RightArm  -30.8272 34.4515 39.6721
RightForeArm  -34.2593 -5.41223 2.64402
RightHand  -0.830812 5.383 -9.2406
LeftUpLeg  8.18113 -0.321664 -11.8912
LeftLeg  23.7434 13.541 7.40513
LeftFoot  2.55249 0.842488 -7.03452
LeftToes  6.91183e-011 3.39355e-011 2.1261e-011
322
root  -11.6179 38.1992 7.55817 -124.201 -68.7907 126.973
RightUpLeg  -39.8784 15.4194 -2.94555
RightLeg  47.6913 -6.67967 -8.17119
RightFoot  19.7725 1.10226 -3.74549
RightToes  -1.16417e-010 0 -3.6325e-017
Spine  14.4589 3.11681 -0.619421
Spine1  -1.83775 5.97944 -15.4673
HEad  -19.7335 5.65383 -9.23305
LeftShoulder1  0.311163 1.67672 -9.681
LeftArm  -88.2228 -45.25 7.5809
LeftForeArm  94.2689 -76.9004 -121.857
LeftHand  -1.28378 0.502395 30.0989
RightShoulder  2.41575 8.68835 12.8416
RightArm  -31.2878 28.9278 40.2889
RightForeArm  -29.0003 -5.57162 2.52681
RightHand  -0.822415 5.34445 -9.17741
LeftUpLeg  10.8468 4.01043 -9.60086
LeftLeg  18.6248 2.5681 1.8244
LeftFoot  -1.39677 1.03417 -12.2083
LeftToes  6.91183e-011 3.39355e-011 2.1261e-011
323
root  -11.922 36.5382 7.9014 -111.851 -67.451 114.139
RightUpLeg  -37.5589 15.2291 -4.37936
RightLeg  52.0365 -13.1982 -17.7716
RightFoot  1.35363 1.13127 -9.87967
RightToes  -1.16417e-010 0 -3.6325e-017
Spine  13.0677 2.16702 -2.65449
Spine1  -1.73972 4.66553 -16.2184
HEad  -17.7647 3.8807 -7.96038
LeftShoulder1  -0.0319935 3.71912 -6.63948
LeftArm  -102.675 -47.3415 17.5335
LeftForeArm  105.227 -75.5817 -129.844
LeftHand  -1.32811 0.260596 29.7001
RightShoulder  2.36975 8.29646 13.1106
RightArm  -32.9902 26.2545 40.8254
RightForeArm  -26.8495 -5.46562 1.51864
RightHand  -0.749334 5.08916 -8.5859
LeftUpLeg  12.4417 1.85167 -9.03711
LeftLeg  20.448 -14.6999 -4.86747
LeftFoot  -11.5755 0.0921668 -15.2434
LeftToes  6.91183e-011 3.39355e-011 2.1261e-011
324
root  -12.2033 35.3249 8.09351 -108.663 -65.9798 109.801
RightUpLeg  -35.975 15.909 -5.16624
RightLeg  56.0037 -15.7123 -23.6765
RightFoot  -12.2825 -0.153657 -12.9666
RightToes  -1.16417e-010 0 -3.6325e-017
Spine  11.4593 2.90075 -2.74871
Spine1  2.08125 6.24717 -18.4701
HEad  -18.6931 -0.0605821 -7.21861
LeftShoulder1  -0.099417 4.4432 -2.33208
LeftArm  -112.733 -49.6181 22.1112
LeftForeArm  112.16 -74.9238 -133.449
LeftHand  -1.55976 -0.74603 29.2038
RightShoulder  2.09407 6.96579 13.0395
RightArm  -35.3942 25.0475 40.0091
RightForeArm  -27.7638 -5.19009 0.1015
RightHand  -0.734509 5.04189 -8.45658
LeftUpLeg  14.304 -1.09934 -10.2149
LeftLeg  23.2005 -24.9981 -9.56045
LeftFoot  -21.7388 -1.07255 -13.0271
LeftToes  6.91183e-011 3.39355e-011 2.1261e-011
325
root  -12.2641 35.2048 7.79365 -107.723 -65.6336 107.539
RightUpLeg  -34.9216 15.4388 -4.96058
RightLeg  56.8722 -15.2727 -23.8571
RightFoot  -13.712 -0.36736 -13.842
RightToes  -1.16417e-010 0 -3.6325e-017
Spine  11.7042 3.85283 -3.20623
Spine1  5.95109 8.0525 -19.7697
HEad  -21.5929 -3.45394 -6.62583
LeftShoulder1  -0.053316 4.18601 1.23966
LeftArm  -111.935 -50.851 18.0436
LeftForeArm  121.1 -73.3619 -139.894
LeftHand  -1.50801 -0.988634 27.1646
RightShoulder  1.94233 6.10859 13.2509
RightArm  -36.7014 24.5963 39.4906
RightForeArm  -30.0767 -4.97797 -0.68145
RightHand  -0.759813 5.2231 -8.59929
LeftUpLeg  15.5686 0.301883 -9.30468
LeftLeg  24.0584 -29.1979 -11.7994
LeftFoot  -21.0757 -0.914242 -12.4012
LeftToes  6.91183e-011 3.39355e-011 2.1261e-011
326
root  -11.8408 36.143 6.8244 -95.9046 -67.5371 94.0058
RightUpLeg  -31.7329 10.384 -3.14372
RightLeg  51.7297 -16.6988 -21.5807
RightFoot  -5.41058 0.766784 -14.9995
RightToes  -1.16417e-010 0 -3.6325e-017
Spine  15.0207 2.59852 -5.00308
Spine1  7.48568 6.38661 -17.9585
HEad  -23.6969 -5.27311 -5.24565
LeftShoulder1  0.124961 1.6673 2.2393
LeftArm  -98.4717 -50.6109 6.82235
LeftForeArm  118.427 -74.7819 -135.362
LeftHand  -1.19302 -0.189779 24.698
RightShoulder  1.9242 6.6127 11.981
RightArm  -36.0987 25.2741 41.7578
RightForeArm  -33.1374 -4.86229 -0.744071
RightHand  -0.710871 5.27187 -8.02531
LeftUpLeg  11.8602 -2.39948 -5.83763
LeftLeg  29.0808 -27.7294 -15.1792
LeftFoot  -7.83082 0.548016 -15.0064
LeftToes  6.91183e-011 3.39355e-011 2.1261e-011
327
root  -11.0237 37.6421 5.53119 -71.1889 -70.5559 67.5361
RightUpLeg  -26.027 2.46862 0.879129
RightLeg  39.0478 -18.4594 -15.8257
RightFoot  6.07137 2.05476 -13.4158
RightToes  -1.16417e-010 0 -3.6325e-017
Spine  20.5727 0.127065 -4.2793
Spine1  7.32521 2.80983 -13.3759
HEad  -23.4192 -7.53545 -2.80086
LeftShoulder1  0.411022 -2.90436 2.27394
LeftArm  -77.9719 -49.0804 -8.97257
LeftForeArm  70.2825 -78.5996 -86.0249
LeftHand  -1.13309 -0.322326 23.0314
RightShoulder  1.78906 7.70115 8.5387
RightArm  -34.0099 27.0168 44.7569
RightForeArm  -38.4076 -4.74985 -0.289073
RightHand  -0.573976 5.2718 -6.55
LeftUpLeg  1.30122 -11.1795 -0.882567
LeftLeg  39.5678 -17.7339 -14.4205
LeftFoot  9.18186 2.69165 -15.4757
LeftToes  6.91183e-011 3.39355e-011 2.1261e-011
328
root  -10.3213 38.984 4.45372 -46.381 -73.181 41.9687
RightUpLeg  -20.2224 -2.62675 5.79825
RightLeg  24.1759 -11.9359 -6.04533
RightFoot  15.0565 0.849 -3.3375
RightToes  -1.16417e-010 0 -3.6325e-017
Spine  25.2094 -0.36026 0.0252952
Spine1  6.804 1.79942 -8.03557
HEad  -22.1525 -11.728 -0.0190979
LeftShoulder1  0.470864 -7.4021 4.60537
LeftArm  -59.6782 -47.402 -27.215
LeftForeArm  8.74088 -63.9868 -23.9854
LeftHand  -1.49018 -2.68218 21.4932
RightShoulder  1.41436 7.78885 4.60931
RightArm  -32.8186 28.8338 43.7438
RightForeArm  -44.3808 -4.57317 0.0283505
RightHand  -0.503553 5.91172 -5.49179
LeftUpLeg  -12.6283 -19.1521 5.04275
LeftLeg  52.0279 -3.39899 -3.94873
LeftFoot  17.7367 2.438 -9.67568
LeftToes  6.91183e-011 3.39355e-011 2.1261e-011
329
root  -10.0565 39.909 3.59262 -33.8398 -75.8757 30.3627
RightUpLeg  -15.9371 -2.4268 7.5667
RightLeg  15.9272 2.59014 1.26811
RightFoot  16.7265 -3.02318 12.9795
RightToes  -1.16417e-010 0 -3.6325e-017
Spine  26.1698 2.24835 1.42797
Spine1  6.85603 3.80253 -3.7433
HEad  -22.2709 -15.6372 2.27873
LeftShoulder1  -0.0241073 -10.2455 9.90108
LeftArm  -47.5758 -46.8855 -43.8551
LeftForeArm  -5.49123 -36.5093 -8.03397
LeftHand  -1.90313 -4.9875 21.3587
RightShoulder  0.972938 6.38198 1.5856
RightArm  -36.5653 30.6485 38.2548
RightForeArm  -45.5688 -4.51958 -1.54323
RightHand  -0.616376 7.69703 -5.8098
LeftUpLeg  -26.0444 -19.666 8.3431
LeftLeg  63.9528 3.76755 8.51408
LeftFoot  16.517 0.0958859 -0.6952
LeftToes  6.91183e-011 3.39355e-011 2.1261e-011
330
root  -10.0271 40.5848 2.72806 -31.5244 -78.3324 29.0794
RightUpLeg  -11.8605 1.26419 6.69093
RightLeg  16.1124 11.0387 3.61303
RightFoot  9.62449 -3.71661 19.8294
RightToes  -1.16417e-010 0 -3.6325e-017
Spine  24.8495 4.85943 -0.817141
Spine1  8.68334 5.31121 -0.605994
HEad  -23.7011 -15.8532 3.71293
LeftShoulder1  -0.589504 -11.0589 14.3171
LeftArm  -36.6215 -46.2433 -56.0555
LeftForeArm  -10.1848 -11.7116 -3.31058
LeftHand  -1.75034 -3.78517 22.1549
RightShoulder  0.643675 4.81795 -0.789576
RightArm  -45.7248 33.9497 32.8598
RightForeArm  -41.0816 -1.90301 -4.75765
RightHand  -0.779776 9.76877 -6.35604
LeftUpLeg  -35.5629 -16.8983 6.86882
LeftLeg  68.9368 3.8364 11.6049
LeftFoot  14.3228 -0.931173 3.62994
LeftToes  6.91183e-011 3.39355e-011 2.1261e-011
